<svg width="24" height="25" viewBox="0 0 24 25" fill="none" xmlns="http://www.w3.org/2000/svg">
<path d="M11.1929 16.9731C11.2498 17.1102 11.2647 17.261 11.2358 17.4065C11.207 17.552 11.1356 17.6857 11.0307 17.7906L8.03073 20.7906C7.96107 20.8604 7.87836 20.9157 7.78731 20.9534C7.69626 20.9912 7.59866 21.0106 7.5001 21.0106C7.40154 21.0106 7.30395 20.9912 7.2129 20.9534C7.12185 20.9157 7.03913 20.8604 6.96948 20.7906L3.96948 17.7906C3.86447 17.6858 3.79294 17.5521 3.76396 17.4065C3.73497 17.2609 3.74982 17.11 3.80664 16.9729C3.86345 16.8358 3.95967 16.7186 4.08312 16.6362C4.20656 16.5538 4.35168 16.5099 4.5001 16.51H6.7501L6.7501 5.26002C6.7501 5.06111 6.82912 4.87034 6.96977 4.72969C7.11043 4.58904 7.30119 4.51002 7.5001 4.51002C7.69902 4.51002 7.88978 4.58904 8.03043 4.72969C8.17109 4.87034 8.2501 5.06111 8.2501 5.26002L8.2501 16.51H10.5001C10.6484 16.51 10.7934 16.5541 10.9168 16.6365C11.0401 16.7189 11.1362 16.8361 11.1929 16.9731ZM20.0307 7.72939L17.0307 4.7294C16.9611 4.65966 16.8784 4.60434 16.7873 4.5666C16.6963 4.52886 16.5987 4.50943 16.5001 4.50943C16.4015 4.50943 16.3039 4.52886 16.2129 4.5666C16.1218 4.60434 16.0391 4.65966 15.9695 4.7294L12.9695 7.72939C12.8645 7.83429 12.7929 7.96798 12.764 8.11354C12.735 8.2591 12.7498 8.41 12.8066 8.54711C12.8635 8.68423 12.9597 8.80141 13.0831 8.88381C13.2066 8.96621 13.3517 9.01014 13.5001 9.01002H15.7501L15.7501 20.26C15.7501 20.4589 15.8291 20.6497 15.9698 20.7903C16.1104 20.931 16.3012 21.01 16.5001 21.01C16.699 21.01 16.8898 20.931 17.0304 20.7903C17.1711 20.6497 17.2501 20.4589 17.2501 20.26V9.01002L19.5001 9.01002C19.6485 9.01014 19.7936 8.96621 19.9171 8.88381C20.0405 8.80141 20.1368 8.68423 20.1936 8.54711C20.2504 8.41 20.2652 8.2591 20.2363 8.11354C20.2073 7.96798 20.1357 7.83429 20.0307 7.72939Z" fill="#277C78"/>
</svg>
