<svg width="24" height="25" viewBox="0 0 24 25" fill="none" xmlns="http://www.w3.org/2000/svg">
<path d="M17.25 5.33595V3.76001C17.25 3.36219 17.092 2.98065 16.8107 2.69935C16.5294 2.41804 16.1478 2.26001 15.75 2.26001L8.25 2.26001C7.85218 2.26001 7.47064 2.41804 7.18934 2.69935C6.90804 2.98065 6.75 3.36219 6.75 3.76001V5.33595C5.90354 5.50963 5.14289 5.96995 4.59637 6.63927C4.04985 7.30858 3.75092 8.14591 3.75 9.01001L3.75 19.51C3.75 20.5046 4.14509 21.4584 4.84835 22.1617C5.55161 22.8649 6.50544 23.26 7.5 23.26L16.5 23.26C17.4946 23.26 18.4484 22.8649 19.1517 22.1617C19.8549 21.4584 20.25 20.5046 20.25 19.51L20.25 9.01001C20.2491 8.14591 19.9501 7.30858 19.4036 6.63927C18.8571 5.96995 18.0965 5.50963 17.25 5.33595ZM11.25 3.76001L12.75 3.76001V5.26001H11.25V3.76001ZM8.25 3.76001H9.75V5.26001H8.25V3.76001ZM12.75 18.01V18.76C12.75 18.9589 12.671 19.1497 12.5303 19.2903C12.3897 19.431 12.1989 19.51 12 19.51C11.8011 19.51 11.6103 19.431 11.4697 19.2903C11.329 19.1497 11.25 18.9589 11.25 18.76V18.01H10.5C10.3011 18.01 10.1103 17.931 9.96967 17.7903C9.82902 17.6497 9.75 17.4589 9.75 17.26C9.75 17.0611 9.82902 16.8703 9.96967 16.7297C10.1103 16.589 10.3011 16.51 10.5 16.51H12.75C12.9489 16.51 13.1397 16.431 13.2803 16.2903C13.421 16.1497 13.5 15.9589 13.5 15.76C13.5 15.5611 13.421 15.3703 13.2803 15.2297C13.1397 15.089 12.9489 15.01 12.75 15.01H11.25C10.6533 15.01 10.081 14.773 9.65901 14.351C9.23705 13.929 9 13.3567 9 12.76C9 12.1633 9.23705 11.591 9.65901 11.169C10.081 10.7471 10.6533 10.51 11.25 10.51V9.76001C11.25 9.5611 11.329 9.37033 11.4697 9.22968C11.6103 9.08903 11.8011 9.01001 12 9.01001C12.1989 9.01001 12.3897 9.08903 12.5303 9.22968C12.671 9.37033 12.75 9.5611 12.75 9.76001V10.51H13.5C13.6989 10.51 13.8897 10.589 14.0303 10.7297C14.171 10.8703 14.25 11.0611 14.25 11.26C14.25 11.4589 14.171 11.6497 14.0303 11.7903C13.8897 11.931 13.6989 12.01 13.5 12.01H11.25C11.0511 12.01 10.8603 12.089 10.7197 12.2297C10.579 12.3703 10.5 12.5611 10.5 12.76C10.5 12.9589 10.579 13.1497 10.7197 13.2903C10.8603 13.431 11.0511 13.51 11.25 13.51H12.75C13.3467 13.51 13.919 13.7471 14.341 14.169C14.7629 14.591 15 15.1633 15 15.76C15 16.3567 14.7629 16.929 14.341 17.351C13.919 17.773 13.3467 18.01 12.75 18.01ZM15.75 5.26001H14.25V3.76001H15.75V5.26001Z" fill="#277C78"/>
</svg>
