<svg width="24" height="25" viewBox="0 0 24 25" fill="none" xmlns="http://www.w3.org/2000/svg">
<path d="M2.32038 11.5919C2.54185 9.73474 3.30145 7.98288 4.50569 6.55187C4.63894 6.39119 4.80425 6.2601 4.99106 6.16696C5.17787 6.07383 5.38206 6.02071 5.59057 6.01101C5.79908 6.0013 6.00732 6.03522 6.20198 6.11059C6.39663 6.18597 6.57341 6.30114 6.721 6.44875L9.31507 9.09812C9.56489 9.34737 9.71799 9.67731 9.74701 10.029C9.77603 10.3807 9.67909 10.7313 9.4735 11.0181C9.31778 11.239 9.2005 11.4847 9.12663 11.7447C9.10316 11.8214 9.05572 11.8886 8.99126 11.9363C8.9268 11.9841 8.84873 12.0099 8.7685 12.01L2.6935 12.01C2.64057 12.0101 2.58821 11.999 2.53988 11.9774C2.49155 11.9558 2.44834 11.9242 2.4131 11.8847C2.37785 11.8452 2.35137 11.7987 2.33539 11.7482C2.31941 11.6977 2.31429 11.6445 2.32038 11.5919ZM12.8804 3.01562C12.6732 2.99755 12.4645 3.02277 12.2676 3.08966C12.0707 3.15655 11.8898 3.26366 11.7365 3.40419C11.5832 3.54472 11.4608 3.71559 11.377 3.90596C11.2933 4.09632 11.2501 4.30202 11.2501 4.50999V8.32281C11.2475 8.6766 11.3711 9.01972 11.5988 9.29053C11.8265 9.56135 12.1433 9.74209 12.4923 9.80031C13.1494 9.90872 13.7518 10.2327 14.2044 10.7212C14.6571 11.2098 14.9344 11.835 14.9925 12.4985C15.0506 13.162 14.8863 13.8259 14.5254 14.3857C14.1646 14.9455 13.6277 15.3693 12.9994 15.5903C12.9263 15.6172 12.8632 15.6658 12.8186 15.7297C12.774 15.7936 12.7501 15.8696 12.7501 15.9475L12.7501 22.0628C12.7497 22.1159 12.7606 22.1685 12.7821 22.217C12.8036 22.2656 12.8352 22.309 12.8747 22.3445C12.9142 22.3799 12.9608 22.4066 13.0114 22.4227C13.062 22.4388 13.1154 22.4439 13.1682 22.4378C15.5081 22.1489 17.6649 21.0247 19.2417 19.272C20.8185 17.5193 21.7093 15.256 21.7501 12.8987C21.8204 7.80906 17.9241 3.4675 12.8804 3.01562ZM10.9923 15.5875C10.573 15.438 10.1923 15.197 9.87775 14.8821C9.56317 14.5672 9.32261 14.1863 9.1735 13.7669C9.14794 13.6925 9.09996 13.6279 9.03617 13.5819C8.97237 13.5359 8.8959 13.5108 8.81725 13.51L2.69257 13.51C2.63956 13.5097 2.58709 13.5206 2.5386 13.542C2.49012 13.5634 2.44673 13.5949 2.41129 13.6343C2.37586 13.6737 2.34918 13.7202 2.33303 13.7707C2.31687 13.8212 2.3116 13.8745 2.31757 13.9272C2.58017 16.0941 3.56166 18.1105 5.10514 19.654C6.64862 21.1975 8.66498 22.179 10.8319 22.4416C10.8846 22.4475 10.9379 22.4423 10.9884 22.4261C11.0389 22.4099 11.0854 22.3833 11.1248 22.3478C11.1642 22.3124 11.1957 22.269 11.2171 22.2205C11.2386 22.172 11.2495 22.1196 11.2491 22.0666L11.2491 15.9475C11.2493 15.8682 11.2246 15.7908 11.1785 15.7262C11.1324 15.6617 11.0673 15.6132 10.9923 15.5875Z" fill="#277C78"/>
</svg>
